<svg xmlns="http://www.w3.org/2000/svg" viewBox="0 0 64 64">
  <rect width="64" height="64" rx="14" fill="#0e0e10"/>
  <svg x="4" y="4" width="56" height="56" viewBox="0 0 200 200">
    <path d="M111.1 82.4L111.1 83.3L114.8 85.2L114.8 88.9L117.6 91.6L125.1 91.6L127.8 89.8L133.4 88.9L133.4 87.9L129.7 87.9L127.8 86.1L120.4 82.4Z" fill="#0077c2"/>
    <path d="M182.6 87.9L168.7 88.9L167.7 87.9L162.2 87.9L161.2 87.0L158.5 87.0L152.9 85.2L150.1 83.3L146.4 82.4L144.5 80.5L142.7 80.5L134.3 72.2L131.5 66.6L129.7 65.7L126.0 65.7L125.1 64.7L120.4 64.7L119.5 63.8L112.1 63.8L111.1 62.9L111.1 55.5L108.4 49.9L108.4 48.0L102.8 41.5L100.9 41.5L101.9 44.3L101.9 54.5L100.9 57.3L96.3 62.0L91.6 62.9L89.8 61.0L89.8 56.4L87.0 49.0L85.2 47.1L85.2 45.3L78.7 38.8L75.9 37.8L76.8 49.9L65.7 69.4L63.8 77.7L62.0 78.7L61.0 80.5L54.5 81.4L42.5 87.9L36.9 92.6L29.5 100.9L29.5 102.8L34.1 101.9L35.1 104.6L27.6 113.0L22.1 123.2L20.2 132.5L19.3 133.4L19.3 138.0L21.1 138.0L24.8 135.3L27.6 135.3L29.5 137.1L30.4 145.5L32.3 147.3L32.3 150.1L35.1 155.7L41.5 164.0L42.5 164.0L44.3 166.8L49.0 170.5L49.0 171.4L62.0 171.4L61.0 168.7L61.0 162.2L60.1 161.2L61.0 149.2L62.9 146.4L63.8 142.7L65.7 140.8L65.7 139.0L72.2 131.5L74.0 130.6L74.9 124.1L78.7 117.6L83.3 113.9L83.3 113.0L81.4 113.0L75.9 117.6L74.0 117.6L73.1 114.8L75.9 111.1L75.9 109.3L81.4 103.7L81.4 100.0L87.0 97.2L95.4 96.3L96.3 95.4L103.7 95.4L103.7 94.4L98.1 92.6L93.5 87.9L93.5 82.4L94.4 80.5L99.1 76.8L104.6 74.9L113.0 74.0L113.9 73.1L124.1 74.0L134.3 83.3L140.8 87.0L142.7 87.0L145.5 88.9L159.4 93.5L164.9 94.4L166.8 100.0L168.7 101.9L173.3 103.7L173.3 107.4L165.9 112.1L142.7 112.1L134.3 115.8L130.6 119.5L130.6 122.3L126.0 125.1L122.3 125.1L113.9 127.8L108.4 130.6L107.4 132.5L105.6 132.5L100.9 136.2L98.1 139.9L97.2 139.9L92.6 145.5L91.6 148.2L89.8 149.2L84.2 159.4L81.4 159.4L80.5 158.5L81.4 148.2L83.3 145.5L83.3 143.6L88.9 137.1L89.8 134.3L81.4 139.0L74.9 147.3L72.2 154.7L72.2 164.0L74.0 168.7L74.0 171.4L92.6 171.4L92.6 169.6L97.2 162.2L101.9 157.5L104.6 158.5L106.5 164.9L108.4 164.9L108.4 159.4L109.3 156.6L113.0 151.0L115.8 152.0L116.7 156.6L118.6 160.3L119.5 160.3L120.4 147.3L122.3 145.5L122.3 143.6L125.1 138.0L132.5 131.5L138.0 130.6L139.0 129.7L142.7 129.7L143.6 128.8L152.0 128.8L152.9 127.8L155.7 127.8L166.8 123.2L173.3 118.6L178.9 111.1L179.8 107.4L181.6 105.6L181.6 102.8L183.5 99.1L183.5 89.8Z" fill="#0077c2"/>
    <path d="M133.4 121.3L134.3 118.6L139.0 116.7L148.2 116.7L153.8 118.6L152.9 121.3L148.2 121.3L147.3 122.3L134.3 122.3Z" fill="#0e0e10"/>
    <path d="M46.2 113.0L48.0 113.0L49.0 115.8L45.3 124.1L45.3 127.8L52.7 124.1L55.5 124.1L56.4 123.2L59.2 123.2L60.1 124.1L60.1 126.9L54.5 135.3L52.7 140.8L52.7 151.0L51.8 152.0L49.0 151.0L49.0 147.3L48.0 146.4L48.0 142.7L49.9 139.0L49.9 136.2L51.8 133.4L51.8 130.6L42.5 135.3L40.6 138.0L37.8 137.1L37.8 132.5L38.8 131.5L39.7 124.1L41.5 121.3L42.5 117.6Z" fill="#0e0e10"/>
    <path d="M82.4 55.5L83.3 56.4L82.4 64.7L84.2 65.7L84.2 68.5L82.4 72.2L79.6 74.9L77.7 75.9L73.1 75.9L72.2 74.9L72.2 69.4L78.7 60.1L79.6 56.4Z" fill="#0e0e10"/>
  </svg>
</svg>